<?xml version="1.0" standalone="no"?>
<!DOCTYPE svg PUBLIC "-//W3C//DTD SVG 20010904//EN"
 "http://www.w3.org/TR/2001/REC-SVG-20010904/DTD/svg10.dtd">
<svg version="1.0" xmlns="http://www.w3.org/2000/svg"
 width="700.000000pt" height="700.000000pt" viewBox="0 0 700.000000 700.000000"
 preserveAspectRatio="xMidYMid meet">
<metadata>
Created by potrace 1.14, written by Peter Selinger 2001-2017
</metadata>
<g transform="translate(0.000000,700.000000) scale(0.100000,-0.100000)"
fill="#000000" stroke="none">
<path d="M3219 6996 c-2 -2 -40 -6 -84 -10 -124 -10 -321 -38 -420 -60 -448
-101 -808 -254 -1189 -504 -55 -36 -107 -71 -115 -78 -9 -7 -61 -48 -117 -92
-731 -576 -1193 -1435 -1282 -2382 -14 -153 -7 -578 13 -715 2 -16 6 -48 9
-70 56 -426 226 -902 459 -1285 58 -96 173 -268 186 -280 4 -3 26 -32 51 -64
337 -445 874 -849 1415 -1066 213 -86 508 -170 680 -195 17 -3 41 -7 55 -10
14 -3 43 -7 65 -10 22 -3 60 -8 84 -11 l44 -6 -7 68 c-3 38 -8 83 -10 99 -3
17 -7 68 -11 115 -3 47 -8 99 -10 115 -8 73 -18 346 -19 525 0 235 10 449 28
615 12 110 17 149 32 250 17 114 23 149 39 225 24 113 26 135 16 176 -101 424
-236 737 -431 999 -67 89 -200 237 -162 180 62 -95 181 -333 242 -486 72 -180
155 -457 174 -584 2 -16 7 -50 11 -75 3 -25 8 -55 11 -67 3 -17 0 -21 -14 -18
-11 2 -43 6 -72 10 -29 4 -62 9 -74 11 -12 2 -37 7 -56 10 -222 38 -532 144
-750 258 -704 366 -1197 1092 -1319 1946 -19 136 -23 396 -6 393 6 0 51 -4
100 -7 128 -10 256 -25 330 -40 11 -2 40 -7 65 -10 125 -17 371 -85 535 -146
407 -153 730 -380 971 -684 35 -45 69 -87 75 -94 52 -62 203 -337 249 -452 89
-222 156 -480 185 -705 3 -27 8 -59 10 -70 2 -11 4 -42 4 -70 1 -27 5 -45 9
-40 5 6 24 53 42 105 104 301 243 579 414 830 28 41 53 77 57 80 3 3 19 23 35
45 98 136 356 400 509 521 247 195 520 355 821 480 162 67 492 167 655 199 92
18 281 45 349 51 97 7 92 7 106 5 17 -2 9 -399 -11 -511 -1 -8 -6 -44 -11 -80
-4 -36 -8 -67 -9 -70 -1 -3 -5 -25 -9 -50 -31 -178 -124 -490 -185 -625 -55
-120 -136 -283 -166 -335 -425 -731 -1130 -1247 -1930 -1413 -131 -28 -185
-36 -331 -51 l-32 -3 14 61 c73 318 204 640 413 1009 146 259 438 640 681 888
168 172 167 171 50 91 -510 -345 -883 -860 -1156 -1594 -39 -105 -128 -380
-139 -430 -2 -10 -17 -68 -34 -130 -16 -62 -37 -147 -45 -188 -9 -41 -23 -109
-32 -150 -9 -41 -17 -84 -19 -95 -2 -11 -13 -74 -24 -140 -24 -142 -27 -162
-41 -280 -6 -49 -12 -103 -14 -120 -3 -16 -7 -66 -11 -110 -4 -44 -8 -87 -10
-95 -5 -19 -18 -217 -19 -290 l-1 -55 75 -6 c78 -7 469 -3 530 5 19 2 64 7
100 11 36 3 103 13 150 21 47 9 99 18 115 21 57 9 260 62 355 91 1090 342
1946 1219 2266 2320 28 97 71 278 79 338 4 21 8 50 11 64 14 81 16 92 32 265
15 162 7 573 -13 705 -3 19 -10 67 -16 105 -58 386 -186 765 -374 1109 -63
115 -56 104 -152 252 -183 283 -430 557 -698 773 -49 40 -98 79 -108 87 -110
89 -377 251 -562 340 -345 166 -761 289 -1080 319 -33 3 -73 8 -90 11 -34 5
-531 15 -536 10z"/>
</g>
</svg>
